PathFileType	4	(X/Y/Z)	C:/Users/beibeiliu/ov580/test_trc/User2\sequence.19_training_dense_left.trc
DataRate	CameraRate	NumFrames	NumMarkers	Units	OrigDataRate	OrigDataStartFrame	OrigNumFrames
120	120	11	19	mm	120	313	500
Frame#	Time	ThumbCMC			ThumbMCP			ThumbIP			ThumbTip			IndexMCP			IndexPIP			IndexTip			MiddleMCP			MiddlePIP			MiddleTip			RingMCP			RingPIP			RingTip			PinkyMCP			PinkyPIP			PinkyTip			BackHand1			BackHand2			BackHand3	
		X0	Y0	Z0	X1	Y1	Z1	X2	Y2	Z2	X3	Y3	Z3	X4	Y4	Z4	X5	Y5	Z5	X6	Y6	Z6	X7	Y7	Z7	X8	Y8	Z8	X9	Y9	Z9	X10	Y10	Z10	X11	Y11	Z11	X12	Y12	Z12	X13	Y13	Z13	X14	Y14	Z14	X15	Y15	Z15	X16	Y16	Z16	X17	Y17	Z17	X18	Y18	Z18	
312	2.6	-230.164	36.2676	34.9879	-221.729	56.3036	12.3832	-208.521	71.7036	-14.4127	-184.128	63.2079	-33.6543	-214.932	-8.34555	-34.7135	-193.672	-8.68281	-61.5738	-168.203	15.7841	-57.2304	-199.336	-29.0044	-34.204	-178.126	-18.7594	-65.1287	-158.485	12.2201	-47.8731	-185.097	-38.6269	-25.2536	-169.43	-31.2838	-51.0307	-152.4	0.279556	-40.7511	-170.02	-39.0756	-7.51104	-154.2	-30.193	-34.8317	-135.8	-6.45886	-36.035	-196.947	-31.5277	25.9918	-208.219	-30.5026	58.8627	-227.846	-6.63423	33.1996	
313	2.60833	-225.628	40.8603	42.0985	-216.665	60.7301	19.9306	-201.081	75.6425	-14.5209	-180.778	68.4271	-33.2164	-218.747	-0.511203	-31.8702	-200.78	-7.14459	-59.7627	-171.992	16.0018	-58.6915	-209.448	-21.7804	-37.1848	-183.263	-21.3553	-64.559	-160.653	10.0268	-49.8858	-194.19	-36.5851	-27.8091	-174.262	-33.4223	-51.8633	-154.802	-2.96376	-42.4287	-176.29	-37.9063	-5.59525	-163.786	-33.649	-38.1351	-142.66	-9.54392	-37.8367	-204.912	-29.3129	23.2742	-214.043	-31.139	57.867	-230.157	-2.26932	32.4464	
314	2.61667	-219.878	41.7431	45.3014	-208.757	64.0872	21.217	-195.662	81.4742	-5.50775	-175.509	71.0209	-26.3199	-220.71	5.13917	-29.7366	-205.101	-0.566144	-59.6931	-174.389	19.4814	-58.4065	-213.018	-17.7849	-35.1476	-193.466	-15.2448	-66.16	-165.301	9.31306	-51.0608	-200.1	-34.6507	-25.5994	-188.605	-27.6638	-54.2861	-161.367	-4.61659	-46.3501	-185.827	-37.6305	-10.369	-173.275	-36.5138	-39.2188	-147.482	-14.4875	-43.4126	-205.67	-29.3282	22.367	-215.013	-29.893	57.5798	-228.053	-0.983967	32.8736	
315	2.625	-213.491	45.0035	48.3411	-200.628	66.8109	26.6163	-186.085	81.4631	-0.218441	-169.635	72.1236	-28.4828	-223.898	11.485	-33.7593	-209.428	9.80653	-62.1939	-177.076	23.9199	-59.4355	-221.271	-10.0377	-39.7236	-199.942	-6.68536	-68.7213	-168.107	8.85311	-50.9044	-209.618	-27.0687	-28.679	-193.866	-22.7129	-56.8692	-164.828	-5.98479	-46.7993	-193.529	-36.2766	-12.476	-182.166	-31.0595	-44.0649	-153.687	-13.512	-44.1276	-212.315	-23.0235	23.8058	-218.156	-28.4365	55.0844	-229.344	4.01751	35.9373	
316	2.63333	-204.563	45.0781	50.0458	-191.367	66.1433	27.9289	-176.03	84.924	-0.793177	-161.86	71.9424	-20.3614	-224.905	22.1213	-25.711	-214.779	15.3991	-57.8924	-177.5	29.2528	-58.1439	-227.031	0.264718	-35.8477	-208.128	-2.24153	-66.5624	-171.902	11.5651	-50.3792	-217.859	-22.0811	-31.6809	-203.994	-17.813	-58.6011	-170.989	-6.25728	-49.1715	-203.875	-36.4064	-16.8389	-191.747	-29.7874	-46.6998	-165.338	-14.0055	-48.0618	-216.543	-20.2927	24.9439	-223.072	-22.9355	56.3286	-229.995	12.9292	37.5274	
317	2.64167	-197.04	48.6436	53.6998	-179.798	66.7848	35.163	-163.543	82.6175	5.25753	-153.45	70.3349	-22.2798	-226.038	27.3668	-25.7896	-217.483	24.9678	-55.587	-177.978	27.4405	-54.6037	-230.743	5.90182	-31.3779	-214.871	12.3817	-66.0424	-178.285	11.4393	-54.1862	-225.07	-13.9855	-30.6767	-214.456	-7.30417	-57.6242	-177.82	-1.78698	-49.3413	-211.241	-30.313	-14.9272	-202.216	-22.8536	-48.4212	-169.847	-12.1075	-50.7083	-221.986	-18.5383	25.6078	-223.416	-19.9374	56.481	-225.247	16.662	40.5264	
318	2.65	-188.566	46.437	56.883	-169.866	63.4328	38.962	-152.906	77.897	7.91041	-146.884	65.6771	-16.5984	-225.223	37.9891	-22.3234	-217.565	39.5795	-53.302	-182.008	31.8786	-54.7043	-234.521	21.8089	-32.5601	-220.457	17.2821	-63.5198	-181.367	16.8681	-52.5408	-229.957	-0.900232	-24.571	-220.704	1.92323	-57.1275	-182.404	1.32963	-47.6928	-219.362	-24.8628	-15.2759	-211.858	-14.2256	-46.7519	-182.082	-13.0121	-50.259	-224.338	-12.9326	27.0307	-225.202	-16.7681	57.928	-224.103	20.9323	46.1284	
319	2.65833	-179.678	43.8785	57.4684	-158.696	60.0517	42.6124	-141.082	74.2248	11.999	-139.347	61.8612	-13.5826	-221.027	50.4583	-16.5251	-217.551	47.0637	-46.7921	-181.756	34.2336	-49.2807	-235.936	29.0787	-28.6486	-219.407	30.9922	-61.2181	-184.015	20.6465	-51.4883	-234.436	10.0887	-24.5334	-225.94	12.1936	-52.8664	-189.019	4.22664	-47.7046	-225.006	-12.9587	-13.593	-220.394	-9.72728	-46.8686	-185.938	-10.556	-49.0139	-226.539	-4.90389	22.7659	-227.499	-10.4836	58.2926	-220.383	23.8677	47.4764	
320	2.66667	-175.014	35.2199	62.7204	-152.098	54.0878	41.9728	-134.109	66.2245	14.8726	-134.47	59.1453	-14.6049	-214.883	52.2209	-7.3412	-214.378	58.1368	-41.5193	-178.861	42.4355	-47.0117	-231.314	38.1842	-20.0836	-219.728	41.9984	-56.0186	-186.463	21.1547	-47.5643	-236.481	20.3334	-22.56	-225.711	20.7962	-52.1469	-190.188	6.29581	-42.4596	-231.443	-7.07298	-11.3284	-224.299	4.74239	-42.8556	-190.425	-6.99309	-45.917	-231.033	-0.778287	25.8387	-230.795	-7.08857	59.3498	-214.042	26.2591	53.0056	
321	2.675	-170.038	32.4679	61.36	-141.924	47.6427	49.0802	-124.906	58.8911	21.7775	-124.282	55.2194	-10.8359	-210.28	58.3745	-6.30292	-208.395	65.859	-34.7136	-177.152	42.9422	-45.4742	-227.203	51.2336	-16.3437	-221.034	50.7281	-48.7712	-185.912	27.7864	-45.6992	-232.566	29.5856	-15.0657	-223.127	33.0487	-46.75	-192.776	13.2567	-40.6201	-230.588	2.03325	-6.88181	-227.132	12.0358	-41.0131	-195.303	-0.394151	-44.4073	-228.541	5.33378	29.9719	-229.949	-1.33937	63.0003	-211.121	29.1208	54.8594	
322	2.68333	-164.181	25.0667	67.1901	-138.153	40.6576	47.8462	-117.015	51.6264	23.7031	-121.642	47.1906	-9.07413	-204.344	61.3621	-3.75988	-204.446	66.5243	-31.9641	-178.735	43.7176	-43.9103	-220.081	56.8599	-11.8548	-217.257	55.7228	-46.3602	-181.294	31.1233	-43.5109	-231.78	33.4807	-14.2567	-223.029	39.0825	-43.6534	-194.749	18.3683	-40.3183	-232.806	10.1651	-7.02617	-228.825	17.6997	-39.9963	-201.374	6.60547	-43.8878	-224.196	9.84	32.3999	-227.988	-0.532559	61.3324	-205.94	29.5181	51.5914	
